<svg xmlns="http://www.w3.org/2000/svg" version="1.1" xmlns:xlink="http://www.w3.org/1999/xlink" viewBox="0 0 200 200"><rect width="200" height="200" fill="url('#gradient')"></rect><defs><linearGradient id="gradient" gradientTransform="rotate(44 0.5 0.5)"><stop offset="0%" stop-color="#161f2f"></stop><stop offset="100%" stop-color="#0a1a36"></stop></linearGradient></defs><g><g fill="#b7e7e1" transform="matrix(6.626919104991394,0,0,6.626919104991394,-1.0974426654365885,147.11677058776357)" stroke="#498990" stroke-width="0.5"><path d="M6.69-4.82L4.50-4.82L4.50 0L1.07 0L1.07-14.22L6.75-14.22Q8.38-14.22 9.63-13.62Q10.89-13.02 11.58-11.91Q12.27-10.80 12.27-9.39L12.27-9.39Q12.27-7.31 10.78-6.07Q9.29-4.82 6.69-4.82L6.69-4.82ZM4.50-11.57L4.50-7.47L6.75-7.47Q7.74-7.47 8.27-7.97Q8.79-8.47 8.79-9.38L8.79-9.38Q8.79-10.37 8.25-10.97Q7.71-11.56 6.79-11.57L6.79-11.57L4.50-11.57ZM14.09-14.22L18.59-14.22L21.77-4.33L24.93-14.22L29.44-14.22L29.44 0L26.01 0L26.01-3.32L26.34-10.12L22.90 0L20.63 0L17.19-10.13L17.52-3.32L17.52 0L14.09 0L14.09-14.22Z"></path></g></g></svg>